<svg xmlns="http://www.w3.org/2000/svg" xmlns:xlink="http://www.w3.org/1999/xlink" width="124" zoomAndPan="magnify" viewBox="0 0 93 81.749997" height="109" preserveAspectRatio="xMidYMid meet" version="1.0"><defs><clipPath id="ee917386b5"><path d="M 1 10.1875 L 90.96875 10.1875 L 90.96875 71.3125 L 1 71.3125 Z M 1 10.1875 " clip-rule="nonzero"/></clipPath></defs><g clip-path="url(#ee917386b5)"><path fill="#800000" d="M 85.902344 71.289062 L 57.308594 71.289062 C 54.601562 71.289062 52.390625 69.078125 52.390625 66.371094 C 52.390625 44.398438 46.605469 10.121094 79.925781 10.121094 C 81.605469 10.121094 83.25 10.269531 84.847656 10.550781 C 73.078125 12.617188 63.820312 21.972656 61.898438 33.792969 L 85.902344 33.792969 C 88.609375 33.792969 90.824219 36.007812 90.824219 38.714844 L 90.824219 66.367188 C 90.824219 69.078125 88.609375 71.289062 85.902344 71.289062 Z M 35.75 71.289062 L 7.15625 71.289062 C 4.449219 71.289062 2.234375 69.078125 2.234375 66.371094 C 2.234375 44.398438 -3.546875 10.121094 29.773438 10.121094 C 31.449219 10.121094 33.09375 10.269531 34.691406 10.550781 C 22.925781 12.617188 13.664062 21.972656 11.742188 33.792969 L 35.746094 33.792969 C 38.453125 33.792969 40.667969 36.007812 40.667969 38.714844 L 40.667969 66.367188 C 40.671875 69.078125 38.457031 71.289062 35.75 71.289062 Z M 35.75 71.289062 " fill-opacity="1" fill-rule="evenodd"/></g></svg>