<svg xmlns="http://www.w3.org/2000/svg" xmlns:xlink="http://www.w3.org/1999/xlink" width="500" zoomAndPan="magnify" viewBox="0 0 375 374.999991" height="500" preserveAspectRatio="xMidYMid meet" version="1.0"><defs><g/><clipPath id="9f1ccfae3e"><path d="M 18.75 18.75 L 356.25 18.75 L 356.25 356.25 L 18.75 356.25 Z M 18.75 18.75 " clip-rule="nonzero"/></clipPath><clipPath id="dbe1ea1523"><path d="M 187.5 18.75 C 94.300781 18.75 18.75 94.300781 18.75 187.5 C 18.75 280.699219 94.300781 356.25 187.5 356.25 C 280.699219 356.25 356.25 280.699219 356.25 187.5 C 356.25 94.300781 280.699219 18.75 187.5 18.75 Z M 187.5 18.75 " clip-rule="nonzero"/></clipPath></defs><g clip-path="url(#9f1ccfae3e)"><g clip-path="url(#dbe1ea1523)"><path stroke-linecap="butt" transform="matrix(0.75, 0, 0, 0.75, 18.750003, 18.749999)" fill="none" stroke-linejoin="miter" d="M 225.00001 0.00000164167 C 100.734377 0.00000164167 -0.00000435833 100.734383 -0.00000435833 225.000016 C -0.00000435833 349.26565 100.734377 450.000031 225.00001 450.000031 C 349.265644 450.000031 450.000025 349.26565 450.000025 225.000016 C 450.000025 100.734383 349.265644 0.00000164167 225.00001 0.00000164167 Z M 225.00001 0.00000164167 " stroke="#000000" stroke-width="30" stroke-opacity="1" stroke-miterlimit="4"/></g></g><g fill="#000000" fill-opacity="1"><g transform="translate(87.664086, 229.94182)"><g><path d="M 63.859375 -77.578125 C 66.421875 -81.875 66.953125 -83.09375 66.953125 -84.296875 C 66.953125 -85.375 66.15625 -86.1875 64.40625 -86.984375 C 60.375 -88.46875 54.59375 -89.6875 50.421875 -89.6875 C 47.734375 -89.6875 46.25 -88.875 44.765625 -86.59375 C 41.6875 -81.609375 38.3125 -75.03125 34.6875 -66.6875 C 34.28125 -68.03125 34.015625 -68.96875 34.015625 -69.375 C 33.484375 -71.390625 33.078125 -73.28125 32.671875 -75.296875 C 29.84375 -86.1875 29.84375 -86.1875 28.765625 -86.859375 C 26.484375 -88.328125 19.765625 -89.8125 15.46875 -89.8125 C 9.546875 -89.8125 6.984375 -88.328125 6.984375 -84.84375 C 6.984375 -83.09375 7.53125 -80.9375 9.8125 -74.75 C 10.359375 -73.140625 11.5625 -69.25 13.171875 -63.734375 C 15.46875 -56.328125 17.078125 -51.5 19.234375 -45.71875 L -0.40625 -13.3125 C -3.5 -8.46875 -3.90625 -7.65625 -3.90625 -6.59375 C -3.90625 -3.90625 4.578125 -0.671875 11.828125 -0.671875 C 18.6875 -0.671875 20.96875 -3.5 29.171875 -22.453125 C 31.859375 -11.96875 32.9375 -8.46875 34.546875 -5.640625 C 36.578125 -2.015625 39.9375 -0.40625 45.71875 -0.40625 C 53.375 -0.40625 57.546875 -2.28125 57.546875 -5.78125 C 57.546875 -6.984375 57.015625 -8.734375 56.0625 -11.15625 C 51.5 -21.78125 47.59375 -32 43.828125 -43.421875 Z M 63.859375 -77.578125 "/></g></g></g><g fill="#000000" fill-opacity="1"><g transform="translate(148.573501, 229.94182)"><g><path d="M 26.484375 -89.546875 C 24.203125 -89.546875 22.984375 -89.28125 21.921875 -88.46875 C 20.578125 -87.53125 20.578125 -87.53125 15.59375 -71.9375 C 8.34375 -49.34375 -1.34375 -13.578125 -1.34375 -9.015625 C -1.34375 -6.984375 -0.265625 -5.375 2.15625 -4.03125 C 4.84375 -2.546875 10.75 -1.078125 14.515625 -1.078125 C 19.09375 -1.078125 20.96875 -1.875 21.921875 -4.03125 C 22.71875 -6.1875 23.265625 -8.203125 28.765625 -30.515625 C 30.515625 -37.921875 39.390625 -70.046875 40.609375 -73.40625 C 42.484375 -79.46875 43.03125 -81.609375 43.03125 -82.6875 C 43.03125 -84.296875 42.078125 -85.921875 40.609375 -86.71875 C 37.921875 -88.328125 31.734375 -89.546875 26.484375 -89.546875 Z M 26.484375 -89.546875 "/></g></g></g><g fill="#000000" fill-opacity="1"><g transform="translate(187.431814, 229.94182)"><g/></g></g><g fill="#000000" fill-opacity="1"><g transform="translate(219.163852, 229.94182)"><g><path d="M 32.40625 -19.234375 C 52.84375 -39.53125 62.921875 -55.796875 62.921875 -69.109375 C 62.921875 -75.703125 60.90625 -80.9375 57.015625 -84.296875 C 52.96875 -87.65625 47.0625 -89.6875 40.875 -89.6875 C 30.65625 -89.6875 21.25 -84.96875 15.46875 -76.90625 C 12.640625 -73.140625 10.75 -68.4375 10.75 -65.203125 C 10.75 -63.59375 11.421875 -62.515625 12.640625 -62.125 C 14.390625 -61.4375 19.625 -60.90625 24.734375 -60.90625 C 28.09375 -60.90625 28.90625 -61.3125 30.25 -63.46875 C 32.9375 -67.765625 34.953125 -69.375 37.640625 -69.375 C 39.796875 -69.375 41.015625 -68.171875 41.015625 -66.015625 C 41.015625 -62.796875 38.1875 -57.40625 32.140625 -48.8125 C 25.953125 -40.0625 11.828125 -24.203125 5.515625 -18.828125 C 3.90625 -17.484375 3.359375 -16.671875 3.359375 -15.59375 C 3.359375 -12.09375 6.984375 -3.90625 9.40625 -1.875 C 10.890625 -0.53125 17.609375 0.140625 29.84375 0.140625 C 44.5 0.140625 48 -0.265625 50.015625 -2.546875 C 51.625 -4.4375 54.3125 -12.5 54.3125 -15.859375 C 54.3125 -18.15625 52.84375 -19.5 50.421875 -19.5 C 49.75 -19.5 47.859375 -19.5 46.125 -19.359375 C 43.828125 -19.234375 38.1875 -19.09375 36.4375 -19.09375 C 34.828125 -19.09375 34.28125 -19.09375 32.40625 -19.234375 Z M 32.40625 -19.234375 "/></g></g></g></svg>